<?xml version='1.0' encoding='iso-8859-1'?>
<!DOCTYPE svg PUBLIC '-//W3C//DTD SVG 1.1//EN' 'http://www.w3.org/Graphics/SVG/1.1/DTD/svg11.dtd'>
<svg version="1.1" xmlns="http://www.w3.org/2000/svg" viewBox="0 0 475.052 475.052" xmlns:xlink="http://www.w3.org/1999/xlink" enable-background="new 0 0 475.052 475.052" fill="#fff8e7">
  <path d="m453.566,70.029l-29.986-29.985c-3.649-3.65-9.475-3.921-13.448-0.632l-24.868,20.589-3.061-3.061c-3.906-3.905-10.236-3.905-14.143,0l-118,118.001 35.714-116.779c7.453-24.372-6.31-50.267-30.679-57.725-2.538-0.776-5.276-0.513-7.62,0.732-2.342,1.245-4.094,3.369-4.869,5.906l-75.712,247.537c-2.205-2.179-5.295-3.214-8.368-2.798-3.093,0.419-5.813,2.258-7.354,4.973l-22.364,39.398-96.919,96.919c-6.84,6.84-10.607,15.935-10.607,25.608s3.768,18.768 10.607,25.608l3.396,3.396-14.532,14.532c-2.929,2.929-2.929,7.678 0,10.606 1.465,1.465 3.385,2.197 5.304,2.197s3.839-0.732 5.304-2.197l14.531-14.531 3.396,3.396c6.841,6.84 15.936,10.607 25.608,10.607 9.674,0 18.769-3.767 25.608-10.607l96.92-96.919 39.397-22.364c2.715-1.541 4.555-4.261 4.973-7.355 0.419-3.094-0.631-6.205-2.838-8.413l-1.703-1.703 199.418-199.415c1.875-1.875 2.929-4.419 2.929-7.071s-1.054-5.196-2.929-7.071l-3.063-3.062 20.589-24.867c3.291-3.976 3.018-9.801-0.631-13.45zm-195.34-45.645c7.944,6.551 11.616,17.487 8.423,27.929l-70.741,231.307-12.994-12.994 75.312-246.242zm-119.622,290.29l40.331,40.331-11.846,11.846-40.331-40.331 11.846-11.846zm-56.75,56.751l11.846-11.846 40.331,40.331-11.846,11.846-40.331-40.331zm29.723,50.938l-11.845,11.845-40.331-40.331 11.845-11.845 40.331,40.331zm-7.271-73.391l11.846-11.846 40.331,40.331-11.846,11.845-40.331-40.33zm-29.41,103.355c-4.331,0-8.403-1.687-11.466-4.749l-17.398-17.399c-3.063-3.063-4.75-7.135-4.75-11.466 0-4.331 1.687-8.403 4.75-11.466l2.763-2.763 40.331,40.331-2.763,2.763c-3.063,3.062-7.135,4.749-11.467,4.749zm115.845-106.73l-42.729-42.729 14.07-24.788 53.446,53.446-24.787,14.071zm32.374-34.776l-11.189-11.189 25.673-83.944 137.533-137.535 40.325,40.325-192.342,192.343zm176.353-236.615l16.406-13.583 17.112,17.112-13.583,16.405-19.935-19.934z"/>
</svg>
