<?xml version="1.0" encoding="UTF-8" standalone="no"?>
<svg
   xmlns:dc="http://purl.org/dc/elements/1.1/"
   xmlns:cc="http://creativecommons.org/ns#"
   xmlns:rdf="http://www.w3.org/1999/02/22-rdf-syntax-ns#"
   xmlns:svg="http://www.w3.org/2000/svg"
   xmlns="http://www.w3.org/2000/svg"
   viewBox="0 0 1333.3333 270"
   height="270"
   width="1333.3333"
   xml:space="preserve"
   id="svg2"
   version="1.1">
    <metadata id="metadata8">
        <rdf:RDF>
            <cc:Work rdf:about="">
                <dc:format>image/svg+xml</dc:format>
                <dc:type rdf:resource="http://purl.org/dc/dcmitype/StillImage" />
            </cc:Work>
        </rdf:RDF>
    </metadata>
    <g transform="matrix(1.3333333,0,0,-1.3333333,0,468)" id="g10">
        <g transform="translate(995.2646,317.2349)" id="g12">
            <path id="path14" style="fill:#fff;fill-opacity:1;fill-rule:nonzero;stroke:none" d="M 0,0 V -167.94 H -543.51 V 33.47 h 520.45 z" />
        </g>
        <g id="g16">
            <g clip-path="url(#clipPath22)" id="g18">
                <g transform="translate(309.8008,217.2095)" id="g24">
                    <path id="path26" style="fill:#ffffff;fill-opacity:1;fill-rule:nonzero;stroke:none" d="m 0,0 c -13.924,0 -27.192,5.601 -37.351,15.758 -9.969,10.308 -15.46,23.638 -15.46,37.535 0,13.895 5.491,27.226 15.449,37.522 10.17,10.169 23.438,15.77 37.362,15.77 13.988,0 27.662,-5.746 37.517,-15.764 C 47.482,80.688 52.971,67.361 52.971,53.293 52.971,39.225 47.482,25.896 37.517,15.764 27.662,5.746 13.988,0 0,0 m 0,112.119 c -15.626,0 -30.199,-6.154 -41.036,-17.33 -11.161,-11.511 -17.309,-26.247 -17.309,-41.496 0,-15.249 6.148,-29.986 17.309,-41.497 C -30.198,0.62 -15.625,-5.534 0,-5.534 c 15.832,0 30.52,6.154 41.356,17.33 11.059,11.404 17.149,26.142 17.149,41.497 0,15.355 -6.09,30.092 -17.149,41.496 C 30.521,105.965 15.833,112.119 0,112.119" />
                </g>
                <g transform="translate(561.3076,213.2817)" id="g28">
                    <path id="path30" style="fill:#2c2d2b;fill-opacity:1;fill-rule:nonzero;stroke:none" d="m 0,0 v 0 c 1.527,0 2.767,1.239 2.767,2.767 v 108.907 c 0,1.528 -1.24,2.766 -2.767,2.766 -1.528,0 -2.767,-1.238 -2.767,-2.766 V 2.767 C -2.767,1.239 -1.528,0 0,0" />
                </g>
                <g transform="translate(624.4521,327.7222)" id="g32">
                    <path id="path34" style="fill:#2c2d2b;fill-opacity:1;fill-rule:nonzero;stroke:none" d="m 0,0 v 0 c -0.68,0 -1.333,-0.26 -1.826,-0.728 l -56.831,-53.83 c -0.53,-0.502 -0.829,-1.199 -0.829,-1.928 v -1.439 c 0,-0.757 0.322,-1.477 0.886,-1.981 l 60.336,-53.86 c 0.487,-0.434 1.117,-0.674 1.769,-0.674 h 0.628 c 2.443,0 3.59,3.021 1.762,4.642 l -57.358,50.84 c -1.166,1.033 -1.195,2.845 -0.063,3.916 L 1.824,-4.584 C 3.569,-2.934 2.401,0 0,0" />
                </g>
                <g transform="translate(670.0254,325.0352)" id="g36">
                    <path id="path38" style="fill:#2c2d2b;fill-opacity:1;fill-rule:nonzero;stroke:none" d="M 0,0 V -0.16 C 0,-1.643 1.202,-2.845 2.685,-2.845 H 33.56 c 2.76,0 5,-2.238 5,-5 v -101.224 c 0,-1.483 1.202,-2.685 2.684,-2.685 1.484,0 2.686,1.202 2.686,2.685 V -7.845 c 0,2.762 2.238,5 5,5 h 30.864 c 1.483,0 2.685,1.202 2.685,2.685 V 0 c 0,1.483 -1.202,2.685 -2.685,2.685 H 2.685 C 1.202,2.685 0,1.483 0,0" />
                </g>
                <g transform="translate(9.7354,327.7192)" id="g40">
                    <path id="path42" style="fill:#ffffff;fill-opacity:1;fill-rule:nonzero;stroke:none" d="M 0,0 H -2.316 C -3.798,0 -5,-1.202 -5,-2.685 c 0,-1.482 1.202,-2.684 2.684,-2.684 H 0 19.97 66.225 c 1.483,0 2.684,-1.202 2.684,-2.685 v -103.7 c 0,-1.482 1.202,-2.684 2.685,-2.684 h 0.161 c 1.482,0 2.684,1.202 2.684,2.684 v 109.07 c 0,1.483 -1.202,2.685 -2.684,2.685 L 0,0.001 Z" />
                </g>
                <g transform="translate(141.7354,322.7202)" id="g44">
                    <path id="path46" style="fill:#ffffff;fill-opacity:1;fill-rule:nonzero;stroke:none" d="m 0,0 c 0,2.762 2.238,5 5,5 h 35.039 c 22.906,0 34.891,-18.12 34.891,-36.02 0,-9.454 -3.11,-18.254 -8.755,-24.782 C 59.82,-63.147 50.783,-67.03 40.039,-67.03 H 8.223 c -1.482,0 -2.684,-1.202 -2.684,-2.684 v -37.041 c 0,-1.483 -1.202,-2.684 -2.684,-2.684 H 2.684 c -1.482,0 -2.684,1.201 -2.684,2.684 v 42.421 c 0,1.482 1.202,2.684 2.684,2.684 h 2.855 v -0.01 h 34.5 c 20.282,0 29.521,15.8 29.521,30.48 0,14.762 -9.239,30.65 -29.521,30.65 H 9.22 v 0.01 H 8.052 c -1.482,0 -2.684,-1.201 -2.684,-2.684 v -10.89 c 0,-1.483 -1.202,-2.684 -2.684,-2.684 v 0 C 1.202,-16.778 0,-15.577 0,-14.094 V -0.52 Z" />
                </g>
                <g transform="translate(514.7949,262.9448)" id="g48">
                    <path id="path50" style="fill:#2c2d2b;fill-opacity:1;fill-rule:nonzero;stroke:none" d="m 0,0 v -0.01 c 0,-2.27 -2.32,-3.8 -4.4,-2.91 L -33.73,9.6 c -3.76,1.6 -8.02,1.6 -11.78,0 L -63.04,2.11 V 9 l 17.53,7.48 c 3.76,1.61 8.02,1.61 11.78,0 L -1.92,2.91 C -0.76,2.41 0,1.27 0,0" />
                </g>
                <g transform="translate(514.7949,213.2349)" id="g52">
                    <path id="path54" style="fill:#2c2d2b;fill-opacity:1;fill-rule:nonzero;stroke:none" d="m 0,0 v -0.01 c 0,-2.27 -2.32,-3.8 -4.4,-2.91 L -33.73,9.6 c -3.76,1.6 -8.02,1.6 -11.78,0 L -63.04,2.11 V 9 l 17.53,7.48 c 3.76,1.61 8.02,1.61 11.78,0 L -1.92,2.91 C -0.76,2.41 0,1.27 0,0" />
                </g>
                <g transform="translate(514.7949,312.6553)" id="g56">
                    <path id="path58" style="fill:#2c2d2b;fill-opacity:1;fill-rule:nonzero;stroke:none" d="m 0,0 v -0.01 c 0,-2.27 -2.32,-3.8 -4.4,-2.91 L -33.73,9.6 c -3.76,1.6 -8.02,1.6 -11.78,0 L -63.04,2.12 V 9 l 17.53,7.48 c 3.76,1.61 8.02,1.61 11.78,0 L -1.92,2.91 C -0.76,2.41 0,1.27 0,0" />
                </g>
                <g transform="translate(514.7949,263.9448)" id="g60">
                    <path id="path62" style="fill:#2c2d2b;fill-opacity:1;fill-rule:nonzero;stroke:none" d="m 0,0 v -0.01 c 0,-2.27 -2.32,-3.8 -4.4,-2.91 L -33.73,9.6 c -3.76,1.6 -8.02,1.6 -11.78,0 L -63.04,2.11 V 9 l 17.53,7.48 c 3.76,1.61 8.02,1.61 11.78,0 L -1.92,2.91 C -0.76,2.41 0,1.27 0,0" />
                </g>
                <g transform="translate(514.7949,214.2349)" id="g64">
                    <path id="path66" style="fill:#2c2d2b;fill-opacity:1;fill-rule:nonzero;stroke:none" d="m 0,0 v -0.01 c 0,-2.27 -2.32,-3.8 -4.4,-2.91 L -33.73,9.6 c -3.76,1.6 -8.02,1.6 -11.78,0 L -63.04,2.11 V 9 l 17.53,7.48 c 3.76,1.61 8.02,1.61 11.78,0 L -1.92,2.91 C -0.76,2.41 0,1.27 0,0" />
                </g>
                <g transform="translate(514.7949,313.6553)" id="g68">
                    <path id="path70" style="fill:#2c2d2b;fill-opacity:1;fill-rule:nonzero;stroke:none" d="m 0,0 v -0.01 c 0,-2.27 -2.32,-3.8 -4.4,-2.91 L -33.73,9.6 c -3.76,1.6 -8.02,1.6 -11.78,0 L -63.04,2.12 V 9 l 17.53,7.48 c 3.76,1.61 8.02,1.61 11.78,0 L -1.92,2.91 C -0.76,2.41 0,1.27 0,0" />
                </g>
                <g transform="translate(889.4609,212.6753)" id="g72">
                    <path id="path74" style="fill:#2c2d2b;fill-opacity:1;fill-rule:nonzero;stroke:none" d="m 0,0 c -0.188,0 -0.363,0.094 -0.468,0.252 l -61.717,93.39 c -0.484,0.733 -1.255,1.152 -2.119,1.152 -0.694,0 -1.37,-0.281 -1.853,-0.77 -0.476,-0.481 -0.733,-1.129 -0.725,-1.824 l 0.416,-34.134 V 0.561 C -66.466,0.251 -66.718,0 -67.026,0 h -4.238 c -0.309,0 -0.56,0.251 -0.56,0.561 v 114.532 c 0,0.309 0.251,0.56 0.56,0.56 h 0.477 c 0.189,0 0.365,-0.094 0.469,-0.252 L -8.939,22.063 c 0.483,-0.735 1.256,-1.157 2.122,-1.157 0.696,0 1.373,0.282 1.857,0.773 0.475,0.483 0.731,1.132 0.721,1.829 l -0.559,36.935 v 54.65 c 0,0.309 0.252,0.56 0.561,0.56 H 0 c 0.31,0 0.561,-0.251 0.561,-0.56 V 0.561 C 0.561,0.251 0.31,0 0,0" />
                </g>
                <g transform="translate(922.7422,212.6753)" id="g76">
                    <path id="path78" style="fill:#2c2d2b;fill-opacity:1;fill-rule:nonzero;stroke:none" d="m 0,0 c -1.103,0 -2,0.897 -2,2 v 0.88 c 0,1.103 0.897,2 2,2 h 13.836 c 2.206,0 4,1.794 4,4 V 110.763 H 2.399 c -1.103,0 -2,0.897 -2,2 v 0.713 c 0,1.103 0.897,2 2,2 h 16.795 c 2.206,0 4,-1.795 4,-4 V 8.88 c 0,-2.206 1.795,-4 4,-4 H 41.03 c 1.104,0 2,-0.897 2,-2 V 2 c 0,-1.103 -0.896,-2 -2,-2 z" />
                </g>
                <g transform="translate(451.7549,322.6553)" id="g80">
                    <path id="path82" style="fill:#ffffff;fill-opacity:1;fill-rule:nonzero;stroke:none" d="m 0,0 v -6.88 l -17.55,-7.49 c -3.76,-1.61 -8.02,-1.61 -11.78,0 l -31.79,13.58 c -1.17,0.49 -1.92,1.64 -1.92,2.9 v 0.01 c 0,2.26 2.32,3.79 4.4,2.9 l 29.31,-12.51 c 3.76,-1.61 8.02,-1.61 11.78,0 z" />
                </g>
                <g transform="translate(451.7549,223.2349)" id="g84">
                    <path id="path86" style="fill:#ffffff;fill-opacity:1;fill-rule:nonzero;stroke:none" d="m 0,0 v -6.89 l -17.55,-7.49 c -3.76,-1.6 -8.02,-1.6 -11.78,0.01 L -61.12,-0.8 c -1.17,0.5 -1.92,1.64 -1.92,2.91 0,2.27 2.32,3.8 4.4,2.91 l 29.31,-12.51 c 3.76,-1.61 8.02,-1.61 11.78,0 z" />
                </g>
                <g transform="translate(451.7549,272.9448)" id="g88">
                    <path id="path90" style="fill:#ffffff;fill-opacity:1;fill-rule:nonzero;stroke:none" d="m 0,0 v -6.89 l -17.55,-7.49 c -3.76,-1.6 -8.02,-1.6 -11.78,0.01 L -61.12,-0.8 c -1.17,0.5 -1.92,1.65 -1.92,2.91 0,2.27 2.32,3.8 4.4,2.91 l 29.31,-12.51 c 3.76,-1.61 8.02,-1.61 11.78,0 z" />
                </g>
                <g transform="translate(306.7046,157.8062)" id="g92">
                    <path id="path94" style="fill:#ffffff;fill-opacity:1;fill-rule:nonzero;stroke:none" d="m 0,0 h -0.476 c -2.972,0 -5.741,0.667 -8.309,2 -2.568,1.332 -4.594,3.103 -6.08,5.312 -1.486,2.208 -2.229,4.559 -2.229,7.052 0,3.924 1.659,7.299 4.977,10.125 3.317,2.825 7.284,4.238 11.9,4.238 3.087,0 6.016,-0.691 8.785,-2.073 v -1.369 c -2.712,1.578 -5.64,2.369 -8.785,2.369 -4.241,0 -7.876,-1.302 -10.905,-3.906 -3.029,-2.604 -4.544,-5.726 -4.544,-9.366 0,-3.64 1.515,-6.769 4.544,-9.384 3.029,-2.617 6.664,-3.924 10.905,-3.924 3.145,0 6.073,0.789 8.785,2.369 V 2.073 C 5.943,0.691 3.086,0 0,0" />
                </g>
                <g transform="translate(334.1841,185.978)" id="g96">
                    <path id="path98" style="fill:#ffffff;fill-opacity:1;fill-rule:nonzero;stroke:none" d="m 0,0 v -1.074 h -7.4 v -26.69 h -1.429 v 26.69 h -7.486 V 0 Z" />
                </g>
                <g transform="translate(361.4902,185.978)" id="g100">
                    <path id="path102" style="fill:#ffffff;fill-opacity:1;fill-rule:nonzero;stroke:none" d="m 0,0 -15.406,-27.764 h -1.342 l 3.722,6.7 L -25.143,0 h 1.558 L -12.247,-19.768 -1.341,0 Z" />
                </g>
                <g transform="translate(376.5493,184.0532)" id="g104">
                    <path id="path106" style="fill:#ffffff;fill-opacity:1;fill-rule:nonzero;stroke:none" d="m 0,0 -14.151,-24.766 h 28.432 z m -17.873,-29.43 v 4.664 h 2.381 L 0.13,2.554 15.752,-24.766 h 2.077 v -4.664 h -1.341 v 3.591 h -33.106 v -3.591 z" />
                </g>
                <g transform="translate(424.5415,185.978)" id="g108">
                    <path id="path110" style="fill:#ffffff;fill-opacity:1;fill-rule:nonzero;stroke:none" d="M 0,0 V -27.764 H -1.428 V -1.74 l -22.633,-26.024 h -1.342 V 0 h 1.428 V -25.951 L -1.428,0 Z" />
                </g>
                <g transform="translate(439.9473,169.3564)" id="g112">
                    <path id="path114" style="fill:#ffffff;fill-opacity:1;fill-rule:nonzero;stroke:none" d="M 0,0 H 0.779 V 15.548 H 0.216 c -2.365,0 -4.472,-0.777 -6.318,-2.332 -1.847,-1.555 -2.77,-3.382 -2.77,-5.479 0,-2.098 0.894,-3.912 2.684,-5.442 C -4.4,0.765 -2.337,0 0,0 M 0.303,16.622 H 2.164 V -11.143 H 0.779 v 8.811 l -9.823,-8.811 h -1.602 l 11.165,10.07 h -0.562 c -2.482,0 -4.804,0.875 -6.968,2.628 -2.163,1.752 -3.245,3.819 -3.245,6.201 0,2.381 1.06,4.454 3.181,6.219 2.12,1.764 4.579,2.647 7.378,2.647" />
                </g>
                <g transform="translate(461.7144,186.0454)" id="g116">
                    <path id="path118" style="fill:#2c2d2b;fill-opacity:1;fill-rule:nonzero;stroke:none" d="M 0,0 H 1.375 V -10.107 L 14.995,0 h 1.718 L 1.977,-10.989 20.495,-27.565 H 18.604 L 1.418,-12.239 V -27.565 H 0 Z" />
                </g>
                <g transform="translate(487.9224,169.543)" id="g120">
                    <path id="path122" style="fill:#2c2d2b;fill-opacity:1;fill-rule:nonzero;stroke:none" d="m 0,0 h 0.344 c 2.406,0 4.504,0.759 6.294,2.279 1.79,1.519 2.686,3.32 2.686,5.403 0,2.082 -0.91,3.896 -2.729,5.44 -1.819,1.543 -3.903,2.315 -6.251,2.315 H 0 Z M -1.418,16.502 H 0 c 2.979,0 5.514,-0.876 7.605,-2.627 2.09,-1.752 3.136,-3.817 3.136,-6.193 C 10.741,5.305 9.66,3.259 7.498,1.544 5.334,-0.172 2.95,-1.029 0.344,-1.029 H 0 v -10.034 h -1.418 z" />
                </g>
                <g transform="translate(512.4551,184.1709)" id="g124">
                    <path id="path126" style="fill:#2c2d2b;fill-opacity:1;fill-rule:nonzero;stroke:none" d="M 0,0 -8.034,-14.113 H 8.12 Z M 0.129,2.536 16.24,-25.69 H 14.737 L 8.636,-15.179 H -8.593 l -6.015,-10.511 h -1.332 z" />
                </g>
                <g transform="translate(545.8818,158.0757)" id="g128">
                    <path id="path130" style="fill:#2c2d2b;fill-opacity:1;fill-rule:nonzero;stroke:none" d="m 0,0 h -0.473 c -2.95,0 -5.7,0.662 -8.249,1.985 -2.549,1.323 -4.561,3.081 -6.037,5.274 -1.475,2.193 -2.212,4.527 -2.212,7.002 0,3.895 1.647,7.246 4.941,10.052 3.294,2.805 7.232,4.208 11.815,4.208 3.065,0 5.972,-0.686 8.722,-2.058 v -1.36 c -2.693,1.568 -5.6,2.353 -8.722,2.353 -4.211,0 -7.819,-1.293 -10.827,-3.878 -3.008,-2.586 -4.512,-5.685 -4.512,-9.299 0,-3.614 1.504,-6.72 4.512,-9.317 3.008,-2.598 6.616,-3.896 10.827,-3.896 3.122,0 6.029,0.784 8.722,2.352 V 2.058 C 5.9,0.686 3.064,0 0,0" />
                </g>
                <g transform="translate(590.1357,172.3179)" id="g132">
                    <path id="path134" style="fill:#2c2d2b;fill-opacity:1;fill-rule:nonzero;stroke:none" d="m 0,0 c 0,3.614 -1.497,6.713 -4.49,9.299 -2.993,2.584 -6.603,3.877 -10.827,3.877 -4.226,0 -7.841,-1.293 -10.849,-3.877 -3.008,-2.586 -4.511,-5.685 -4.511,-9.299 0,-3.615 1.503,-6.72 4.511,-9.317 3.008,-2.598 6.616,-3.896 10.827,-3.896 4.211,0 7.82,1.298 10.827,3.896 C -1.504,-6.72 0,-3.615 0,0 m -27.219,-9.979 c -3.251,2.867 -4.876,6.217 -4.876,10.053 0,3.834 1.647,7.154 4.941,9.96 3.294,2.805 7.246,4.208 11.858,4.208 4.611,0 8.55,-1.397 11.816,-4.19 3.265,-2.793 4.897,-6.119 4.897,-9.978 0,-3.86 -1.618,-7.217 -4.855,-10.071 -3.237,-2.855 -7.103,-4.282 -11.6,-4.282 h -0.645 c -4.439,0 -8.285,1.434 -11.536,4.3" />
                </g>
                <g transform="translate(610.9727,186.0454)" id="g136">
                    <path id="path138" style="fill:#2c2d2b;fill-opacity:1;fill-rule:nonzero;stroke:none" d="m 0,0 v -1.066 h -7.347 v -26.499 h -1.418 v 26.499 h -7.432 V 0 Z" />
                </g>
                <path id="path140" style="fill:#2c2d2b;fill-opacity:1;fill-rule:nonzero;stroke:none" d="m 630.693,186.045 h 1.418 V 158.48 h -1.418 z M 617.03,174.211 h -0.343 v -14.665 h 0.343 c 2.149,0 4.074,0.735 5.78,2.205 1.703,1.471 2.555,3.186 2.555,5.146 0,1.96 -0.844,3.669 -2.535,5.127 -1.689,1.457 -3.623,2.187 -5.8,2.187 m -1.761,11.834 h 1.418 v -10.769 h 0.386 c 2.349,0 4.555,-0.833 6.616,-2.499 2.063,-1.666 3.094,-3.626 3.094,-5.88 0,-2.255 -1.01,-4.221 -3.029,-5.899 -2.019,-1.679 -4.375,-2.518 -7.067,-2.518 h -1.418 z" />
           </g>
        </g>
    </g>
</svg>